HIERARCHY
ROOT Root
{
	OFFSET 0.00 0.00 0.00
	CHANNELS 6 Xposition Yposition Zposition Xrotation Yrotation Zrotation
	JOINT L_Femur
	{
		OFFSET 3.02857 0.00000 0.00000
		CHANNELS 3 Xrotation Yrotation Zrotation
		JOINT L_Tibia
		{
			OFFSET 0.00000 -15.47599 0.00000
			CHANNELS 3 Xrotation Yrotation Zrotation
			JOINT L_Foot
			{
				OFFSET 0.00000 -14.81737 0.00000
				CHANNELS 3 Xrotation Yrotation Zrotation
				JOINT L_Toe
				{
					OFFSET 0.00000 -1.57575 5.88080
					CHANNELS 3 Xrotation Yrotation Zrotation
					End Site
					{
						OFFSET 0.00000 0.00000 2.95275
					}
				}
			}
		}
	}
	JOINT R_Femur
	{
		OFFSET -3.02857 0.00000 0.00000
		CHANNELS 3 Xrotation Yrotation Zrotation
		JOINT R_Tibia
		{
			OFFSET 0.00000 -15.47599 0.00000
			CHANNELS 3 Xrotation Yrotation Zrotation
			JOINT R_Foot
			{
				OFFSET 0.00000 -14.81737 0.00000
				CHANNELS 3 Xrotation Yrotation Zrotation
				JOINT R_Toe
				{
					OFFSET 0.00000 -1.57575 5.88080
					CHANNELS 3 Xrotation Yrotation Zrotation
					End Site
					{
						OFFSET 0.00000 0.00000 2.95275
					}
				}
			}
		}
	}
	JOINT LowerBack
	{
		OFFSET 0.00000 0.03937 0.00000
		CHANNELS 3 Xrotation Yrotation Zrotation
		JOINT Thorax
		{
			OFFSET 0.00000 9.04254 0.00000
			CHANNELS 3 Xrotation Yrotation Zrotation
			JOINT Neck
			{
				OFFSET 0.00000 9.84250 0.00000
				CHANNELS 3 Xrotation Yrotation Zrotation
				JOINT head
				{
					OFFSET 0.00000 6.68101 0.00000
					CHANNELS 3 Xrotation Yrotation Zrotation
					End Site
					{
						OFFSET 0.00000 4.52755 0.00000
					}
				}
			}
			JOINT L_Collar
			{
				OFFSET 0.00000 9.84250 0.00000
				CHANNELS 3 Xrotation Yrotation Zrotation
				JOINT L_Humerus
				{
					OFFSET 6.48613 -0.00002 0.00000
					CHANNELS 3 Xrotation Yrotation Zrotation
					JOINT L_Elbow
					{
						OFFSET 11.24297 -0.00004 0.00000
						CHANNELS 3 Xrotation Yrotation Zrotation
						JOINT L_Wrist
						{
							OFFSET 9.15817 -0.00003 0.00000
							CHANNELS 3 Xrotation Yrotation Zrotation
							JOINT L_Wrist_End
							{
								OFFSET 3.93700 -0.00001 0.00000
								CHANNELS 3 Xrotation Yrotation Zrotation
							}
						}
					}
				}
			}
			JOINT R_Collar
			{
				OFFSET 0.00000 9.84250 0.00000
				CHANNELS 3 Xrotation Yrotation Zrotation
				JOINT R_Humerus
				{
					OFFSET -6.48613 -0.00002 0.00000
					CHANNELS 3 Xrotation Yrotation Zrotation
					JOINT R_Elbow
					{
						OFFSET -11.24297 -0.00004 0.00000
						CHANNELS 3 Xrotation Yrotation Zrotation
						JOINT R_Wrist
						{
							OFFSET -9.15817 -0.00003 0.00000
							CHANNELS 3 Xrotation Yrotation Zrotation
							JOINT R_Wrist_End
							{
								OFFSET -5.41338 -0.00002 0.00000
								CHANNELS 3 Xrotation Yrotation Zrotation
							}
						}
					}
				}
			}
		}
	}
}
MOTION
Frames: 16
Frame Time: 0.008333
 0.0643 32.9514 -1.7586 6.5115 1.2230 1.5712 3.6861 0.9307 2.9743 -3.9233 0.0000 -0.0000 10.5243 0.6886 1.1290 -36.0543 0.0000 -0.0000 3.4739 -2.7490 -6.8188 -1.0140 0.0000 0.0000 5.0365 -4.6904 -2.5862 -26.6207 0.0000 -0.0000 -19.7169 2.1199 -0.8130 7.6858 6.3701 -2.1990 17.6662 -9.6216 3.8406 -4.6137 -3.8787 3.0202 -1.5081 -13.6318 22.5169 -16.1604 7.6241 -18.6404 0.0000 8.5878 -0.0000 1.9255 9.8857 8.8182 -0.0000 0.0000 -0.0000 7.9902 4.1689 -19.8982 -24.8540 -17.3221 11.2873 0.0000 -1.0613 0.0000 17.4200 -6.1567 -12.6698 -0.0000 0.0000 -0.0000
 0.0749 32.9602 -1.7509 6.6535 1.1903 1.6383 3.6751 -0.4067 2.9189 -3.9876 0.0000 -0.0000 10.6473 2.1358 1.1906 -35.6908 0.0000 -0.0000 3.4542 -1.7629 -6.9015 -1.0003 0.0000 0.0000 5.0701 -5.7771 -2.3473 -26.5407 0.0000 0.0000 -20.3884 2.2907 -0.7180 8.5351 6.4846 -2.3239 17.5017 -9.7142 3.7662 -4.6736 -4.0761 3.2292 -2.4949 -14.9470 22.1507 -14.9128 8.5000 -18.0979 0.0000 8.1183 -0.0000 3.4725 11.0598 6.6631 -0.0000 0.0000 -0.0000 7.4406 4.6175 -20.0590 -24.2918 -18.2111 11.2533 0.0000 -0.2269 0.0000 18.3164 -8.5522 -11.9566 -0.0000 0.0000 -0.0000
 0.0756 32.9606 -1.7660 6.7991 1.2111 1.6404 3.4792 -0.4593 2.9220 -3.9484 0.0000 -0.0000 10.6467 2.1245 1.1742 -35.7330 0.0000 -0.0000 3.2704 -1.7756 -6.9086 -0.9808 0.0000 0.0000 5.0764 -5.7638 -2.3405 -26.5175 0.0000 -0.0000 -20.4213 2.3354 -0.7273 8.4515 6.5278 -2.3211 17.5040 -9.7831 3.8015 -4.7428 -4.1016 3.2356 -2.4264 -14.8587 22.1252 -15.0614 8.2564 -18.1047 0.0000 8.2117 -0.0000 3.3846 10.9751 6.7765 -0.0000 0.0000 -0.0000 7.5066 4.4000 -20.0024 -24.3888 -18.0856 11.2769 0.0000 -0.2223 0.0000 18.3456 -8.7081 -12.0029 -0.0000 0.0000 -0.0000
 0.0816 32.9604 -1.7671 6.8223 1.1905 1.6459 3.4562 -0.5402 2.9063 -3.9321 0.0000 -0.0000 10.5940 2.2462 1.2255 -35.6802 0.0000 0.0000 3.2464 -1.6717 -6.9270 -0.9600 0.0000 -0.0000 5.0441 -5.8640 -2.3467 -26.4886 0.0000 -0.0000 -20.4361 2.3063 -0.7197 8.4554 6.4956 -2.3056 17.4745 -9.6989 3.7251 -4.7122 -4.0946 3.2690 -2.4918 -14.8591 22.0944 -14.8972 8.3372 -18.0861 0.0000 8.1457 -0.0000 3.4463 10.9492 6.5962 -0.0000 0.0000 -0.0000 7.5545 4.4645 -20.0213 -24.5809 -18.0816 11.2045 0.0000 -0.2506 0.0000 18.4373 -8.8887 -11.6675 -0.0000 -0.0000 0.0000
 0.0830 32.9600 -1.7674 6.8315 1.2017 1.6449 3.4450 -0.3704 2.9017 -3.9609 0.0000 -0.0000 10.6457 2.0583 1.2047 -35.7337 0.0000 -0.0000 3.2264 -1.7552 -6.9296 -0.9666 0.0000 -0.0000 5.0319 -5.7326 -2.3349 -26.3785 0.0000 0.0000 -20.4227 2.3091 -0.7232 8.4438 6.4989 -2.3057 17.4390 -9.7101 3.7334 -4.6866 -4.0746 3.2416 -2.5192 -14.8690 22.1012 -14.8538 8.2985 -18.0986 0.0000 8.2162 -0.0000 3.4245 10.8393 6.6586 -0.0000 0.0000 -0.0000 7.5700 4.4696 -20.0201 -24.5533 -18.1178 11.2153 0.0000 -0.2446 0.0000 18.4377 -8.9433 -11.5902 -0.0000 -0.0000 0.0000
 0.0866 32.9609 -1.7716 6.8356 1.2103 1.6443 3.4261 -0.4346 2.8944 -3.9404 0.0000 -0.0000 10.6447 2.1207 1.1857 -35.7434 0.0000 -0.0000 3.2164 -1.7366 -6.9337 -0.9556 0.0000 -0.0000 5.0610 -5.8177 -2.3156 -26.5077 0.0000 -0.0000 -20.4040 2.3132 -0.7155 8.4463 6.5018 -2.2997 17.4206 -9.7079 3.7162 -4.6914 -4.0897 3.2428 -2.5138 -14.8586 22.0840 -14.8936 8.3053 -18.0860 0.0000 8.1597 -0.0000 3.4382 10.7754 6.6509 -0.0000 0.0000 -0.0000 7.5873 4.4529 -20.0138 -24.6278 -18.1277 11.1786 0.0000 -0.2249 0.0000 18.6135 -8.9648 -11.5704 -0.0000 0.0000 -0.0000
 0.0897 32.9610 -1.7721 6.8421 1.2232 1.6433 3.4025 -0.3653 2.8847 -3.9169 0.0000 -0.0000 10.6193 2.0528 1.2231 -35.7206 0.0000 -0.0000 3.2093 -1.7749 -6.9383 -0.9587 0.0000 0.0000 5.0615 -5.7826 -2.3458 -26.4999 0.0000 -0.0000 -20.3933 2.3129 -0.7150 8.4344 6.5011 -2.2978 17.4244 -9.6957 3.6978 -4.7105 -4.1071 3.2749 -2.4744 -14.8488 22.0973 -14.8550 8.2639 -18.0983 0.0000 8.1724 -0.0000 3.4197 10.8678 6.5791 -0.0000 0.0000 -0.0000 7.5549 4.4515 -20.0174 -24.5800 -18.1158 11.2009 0.0000 -0.2947 0.0000 18.5869 -8.8906 -11.5515 -0.0000 0.0000 -0.0000
 0.0933 32.9611 -1.7758 6.8645 1.2068 1.6480 3.3986 -0.4679 2.8773 -3.9512 0.0000 -0.0000 10.6246 2.1672 1.2316 -35.6820 0.0000 0.0000 3.1615 -1.7884 -6.9483 -0.9319 0.0000 0.0000 5.0703 -5.7808 -2.2929 -26.5012 0.0000 0.0000 -20.3633 2.3221 -0.7078 8.3867 6.5076 -2.2936 17.4613 -9.6385 3.6533 -4.8057 -4.1155 3.3502 -2.4657 -14.8014 22.0506 -14.9320 8.2005 -18.0450 0.0000 8.2028 -0.0000 3.4468 10.8122 6.5331 -0.0000 0.0000 -0.0000 7.6858 4.4082 -20.0160 -24.6354 -18.1099 11.2131 0.0000 -0.2352 0.0000 18.5860 -9.0251 -11.5590 -0.0000 0.0000 -0.0000
 0.0966 32.9608 -1.7766 6.8689 1.2116 1.6473 3.3813 -0.3928 2.8708 -3.9389 0.0000 0.0000 10.6288 2.0868 1.2107 -35.7032 0.0000 0.0000 3.1752 -1.7167 -6.9564 -0.9558 0.0000 0.0000 5.0881 -5.8514 -2.2971 -26.5052 0.0000 -0.0000 -20.3553 2.3260 -0.7029 8.3870 6.5110 -2.2887 17.4320 -9.6558 3.6444 -4.7969 -4.1403 3.3462 -2.4832 -14.8151 22.0564 -14.9102 8.1847 -18.0506 0.0000 8.2786 -0.0000 3.5091 10.5979 6.4685 -0.0000 0.0000 -0.0000 7.6264 4.4183 -20.0164 -24.5406 -18.0953 11.2298 0.0000 -0.2448 0.0000 18.7163 -9.0798 -11.5958 -0.0000 -0.0000 0.0000
 0.0987 32.9610 -1.7778 6.8703 1.2125 1.6472 3.3777 -0.3820 2.8701 -3.9394 0.0000 -0.0000 10.6350 2.0478 1.2340 -35.7295 0.0000 0.0000 3.1746 -1.7009 -6.9592 -0.9530 0.0000 0.0000 5.0666 -5.8563 -2.2860 -26.4489 0.0000 0.0000 -20.3509 2.3257 -0.7022 8.3928 6.5109 -2.2855 17.4307 -9.6468 3.6473 -4.7822 -4.1199 3.3383 -2.4533 -14.8156 22.0687 -14.8346 8.1598 -18.0531 0.0000 8.3054 -0.0000 3.3653 10.5936 6.4315 -0.0000 0.0000 -0.0000 7.6651 4.4142 -20.0079 -24.6288 -18.1022 11.2149 0.0000 -0.2308 0.0000 18.7835 -9.1666 -11.5494 -0.0000 0.0000 -0.0000
 0.0987 32.9610 -1.7778 6.8703 1.2125 1.6472 3.3777 -0.3820 2.8701 -3.9394 0.0000 -0.0000 10.6350 2.0478 1.2340 -35.7295 0.0000 0.0000 3.1746 -1.7009 -6.9592 -0.9530 0.0000 0.0000 5.0666 -5.8563 -2.2860 -26.4489 0.0000 0.0000 -20.3509 2.3257 -0.7022 8.3928 6.5109 -2.2855 17.4307 -9.6468 3.6473 -4.7822 -4.1199 3.3383 -2.4533 -14.8156 22.0687 -14.8346 8.1598 -18.0531 0.0000 8.3054 -0.0000 3.3653 10.5936 6.4315 -0.0000 0.0000 -0.0000 7.6651 4.4142 -20.0079 -24.6288 -18.1022 11.2149 0.0000 -0.2308 0.0000 18.7835 -9.1666 -11.5494 -0.0000 0.0000 -0.0000
 0.1079 32.9592 -1.7814 6.8889 1.2331 1.6473 3.3527 -0.3097 2.8427 -3.9531 0.0000 -0.0000 10.6098 2.0085 1.2415 -35.7182 0.0000 -0.0000 3.1561 -1.6653 -6.9775 -0.9488 0.0000 -0.0000 5.0606 -5.9230 -2.2659 -26.4427 0.0000 0.0000 -20.3502 2.2966 -0.7280 8.3764 6.4913 -2.2482 17.5051 -9.6511 3.6878 -4.8920 -4.0607 3.2765 -2.3795 -14.8384 22.1296 -14.7501 8.2320 -18.1010 0.0000 8.2906 -0.0000 3.3111 10.4261 6.4490 -0.0000 0.0000 -0.0000 7.6191 3.9607 -19.8585 -24.7877 -17.2481 11.3063 0.0000 -0.6464 0.0000 18.9733 -9.2965 -11.7143 -0.0000 -0.0000 0.0000
 0.1116 32.9596 -1.7833 6.8882 1.2202 1.6506 3.3376 -0.3295 2.8384 -3.9196 0.0000 0.0000 10.5922 2.0042 1.2353 -35.6982 0.0000 -0.0000 3.1520 -1.6318 -6.9866 -0.9490 0.0000 0.0000 5.0763 -5.9416 -2.2515 -26.5163 0.0000 -0.0000 -20.3461 2.3093 -0.7184 8.3902 6.5023 -2.2428 17.4726 -9.6481 3.6699 -4.8412 -4.0705 3.2700 -2.4484 -14.8816 22.1246 -14.5836 8.1741 -18.1374 0.0000 8.3945 -0.0000 3.3097 10.2370 6.4494 -0.0000 0.0000 -0.0000 7.6425 3.9524 -19.8722 -24.8738 -17.2580 11.2997 0.0000 -0.6616 0.0000 19.0539 -9.3128 -11.6854 -0.0000 -0.0000 0.0000
 0.1157 32.9601 -1.7890 6.9025 1.2485 1.6486 3.2953 -0.3736 2.8317 -3.8895 0.0000 -0.0000 10.5871 2.0367 1.2330 -35.6452 0.0000 0.0000 3.1224 -1.7525 -6.9900 -0.9546 0.0000 0.0000 5.0823 -5.8366 -2.2181 -26.4923 0.0000 0.0000 -20.2922 2.3849 -0.6900 8.3880 6.5704 -2.2498 17.3617 -9.7025 3.6242 -4.8008 -4.1855 3.3664 -2.4803 -14.9382 22.0638 -14.5496 8.0539 -18.1272 0.0000 8.3426 -0.0000 3.1812 10.1788 6.4661 -0.0000 0.0000 -0.0000 7.6836 4.0814 -19.9752 -24.7530 -17.8094 11.2796 0.0000 -0.3966 0.0000 18.9585 -9.3071 -11.6507 -0.0000 -0.0000 0.0000
 0.1216 32.9613 -1.7897 6.9105 1.2087 1.6652 3.2938 -0.3353 2.8014 -3.8935 0.0000 0.0000 10.5995 2.0408 1.2418 -35.6586 0.0000 -0.0000 3.1079 -1.6145 -7.0215 -0.9261 0.0000 0.0000 5.0872 -5.9515 -2.2213 -26.4825 0.0000 -0.0000 -20.3092 2.3938 -0.6732 8.4265 6.5736 -2.2385 17.4193 -9.6385 3.5495 -4.9409 -4.2288 3.4097 -2.6025 -14.9512 21.9520 -14.3810 7.9980 -18.0643 0.0000 8.3669 -0.0000 3.0750 10.2253 6.4495 -0.0000 0.0000 -0.0000 7.7236 4.2706 -20.0415 -24.7490 -18.0894 11.2172 0.0000 -0.2447 0.0000 18.9057 -9.3499 -11.4987 -0.0000 -0.0000 0.0000
 0.1269 32.9605 -1.7902 6.9181 1.2200 1.6645 3.2935 -0.2913 2.7914 -3.9213 0.0000 -0.0000 10.5969 1.9803 1.2814 -35.6343 0.0000 0.0000 3.1117 -1.6416 -7.0314 -0.9508 0.0000 -0.0000 5.1038 -5.9373 -2.2747 -26.4788 0.0000 -0.0000 -20.3021 2.3881 -0.6679 8.4290 6.5677 -2.2282 17.3990 -9.6659 3.5480 -4.9437 -4.2515 3.3656 -2.5767 -14.9377 21.9524 -14.3993 8.0031 -18.0547 0.0000 8.3742 -0.0000 3.1419 10.1420 6.4150 -0.0000 0.0000 -0.0000 7.7655 4.2586 -20.0430 -24.8832 -18.0829 11.1691 0.0000 -0.2889 0.0000 19.0091 -9.2869 -11.5090 -0.0000 -0.0000 0.0000
